<svg width="230" height="232" viewBox="0 0 230 232" fill="none" xmlns="http://www.w3.org/2000/svg">
<path d="M65.12 229.83C62.92 228.82 59.92 226.69 58.46 225.11C58.28 224.91 57.86 224.29 57.22 223.3L59.62 220.73C61.16 219.08 62.92 217.73 63.54 217.73C64.15 217.73 65.51 216.32 66.56 214.59C68.43 211.52 68.43 211.39 66.6 208.84C65.64 207.5 59.21 197.14 49.91 181.96C61.76 201.25 67.04 209.48 68.52 211.11C73.93 217.08 76.88 217.68 100.87 217.71C112.83 217.72 122.62 217.37 122.62 216.94C122.62 216.1 114.69 203.37 110.8 197.95C108.61 194.9 108.14 194.73 102.13 194.73C94.23 194.73 88.44 192.37 83.64 187.17C84.85 188.07 85.64 187.56 86.62 185.73C87.21 184.63 88.33 183.73 89.12 183.73C91.76 183.73 92.77 180.27 91.2 176.9C92.02 178.41 93.28 179.79 95.04 180.89C99.11 183.43 103.32 182.62 106.98 178.59C109.45 175.88 109.77 174.87 109.29 171.34C108.93 168.63 107.75 166.4 106.01 164.89C106.15 165 106.3 165.11 106.44 165.23C110.38 168.54 112.53 168.29 116.01 164.11L118.68 160.9C121.78 165.55 123.14 171.41 121.64 177.66L120.48 182.5L130.75 198.69C141.39 215.46 143.64 217.73 149.62 217.73C153.83 217.73 157.57 215.63 161.89 210.85C166.44 205.81 168.62 201.64 168.62 197.94C168.62 194.75 167.15 192.23 141.24 151.37L143.62 149.66C145 148.68 147.67 146.57 149.55 144.97L152.99 142.06L151.51 139.73C152.86 141.85 154.24 144.02 155.63 146.23C167.77 165.48 178.06 181.35 178.49 181.51C179.2 181.76 188.62 165.62 190.16 161.53C190.59 160.37 184.46 149.75 170.84 128.03L164.7 118.25C169.61 125.97 173.51 131.73 173.86 131.73C174.27 131.73 175.17 130.83 175.85 129.73C176.54 128.63 177.59 127.73 178.2 127.73C178.8 127.73 180.44 126.44 181.85 124.86L184.39 122C192.18 134.58 197.6 143.29 198.06 143.95C199.31 145.73 199.79 145.2 204.37 137.05C212.38 122.81 212.72 121.99 211.97 118.99C211.59 117.47 208.58 111.73 205.28 106.23C201.43 99.82 195.87 90.7 189.84 80.87C200.03 97.26 203.49 101.93 206.23 101.54C207.52 101.36 208.64 100.05 210.23 98.32C212.04 96.35 213.94 94.73 214.46 94.73C214.98 94.73 215.7 93.57 216.05 92.14C216.59 89.98 216.2 88.58 199.15 58.1C203.04 65.05 207.44 72.88 212.4 81.73C226.44 106.76 229.01 111.99 229.36 116.23C229.41 116.93 229.49 117.48 229.52 118.03C229.69 121.6 227.61 125.28 202.33 170.03C200.69 172.92 198.96 175.99 197.13 179.23C190.6 190.78 182.37 205.4 178.84 211.73C175.3 218.06 171.27 224.45 169.87 225.93C168.91 226.96 168.14 227.8 167.25 228.49C163.09 231.73 156.4 231.73 116.51 231.71H114.97C72.48 231.69 68.83 231.55 65.12 229.83ZM2.26001 128.01C3.47001 130.41 17.11 154.49 30.3 177.63C17.8 156.02 5.25001 133.95 2.26001 128.01ZM147.17 61.7C141.46 52.69 136.42 45.25 134.96 43.73L132.77 41.46L134.51 43.12C136.17 44.72 140.19 50.34 143.44 55.62C144.66 57.61 145.91 59.64 147.17 61.7ZM77.84 172.84C77.75 166.46 80.49 160.12 85.73 155.82C84.02 157.24 82.51 158.95 81.29 160.94C79.04 164.58 77.89 168.77 77.84 172.84ZM129.08 107.66C126.69 106.93 121.54 106.73 108.63 106.73C122.77 106.73 126.91 106.77 129.08 107.66ZM170.89 8.54001C168.22 4.43001 166.76 3.01 165 2C165.4 2.23 165.74 2.4 166.06 2.59C167.17 3.24 168.14 4.14001 170.89 8.54001ZM177.48 60.81C166.22 42.62 156.14 26.51 154.9 24.87C156.21 26.6 166.12 42.37 177.48 60.81ZM90.91 176.32C89.95 174.41 89.71 173.22 90.08 171.37C89.92 173.02 90.18 174.73 90.91 176.32ZM94.66 164.13C96.56 162.93 98.85 162.45 101.15 162.79C100.78 162.75 100.41 162.73 100.03 162.73C97.94 162.73 96.14 163.25 94.66 164.13ZM90.79 152.69C94.36 151.08 98.04 150.51 101.57 150.8C97.89 150.55 94.17 151.19 90.79 152.69ZM153.56 100.5C148.32 92.14 143.78 84.91 141.16 80.73C140.12 79.08 139.16 77.54 138.27 76.13C141.99 82.03 146.94 89.93 153.56 100.5ZM128.14 60.51C126.91 58.9 126.45 58.74 125.87 58.74C125.94 58.74 126.01 58.73 126.08 58.73C126.13 58.72 126.18 58.72 126.23 58.72C126.59 58.71 126.95 58.89 128.14 60.51ZM124.72 125.33L122.44 121.73H122.46L124.72 125.33ZM27.62 145.43C26.09 142.91 24.55 140.37 22.99 137.8C24.58 140.43 26.13 142.97 27.62 145.43Z" fill="#4167AD"/>
<path d="M2.55561 128.241C1.43561 126.031 0.6856 123.861 0.2956 121.731C0.2756 121.621 0.255582 121.501 0.245582 121.391C0.205582 121.201 0.185585 121.011 0.155585 120.821C-0.304415 117.281 0.255608 113.811 1.83561 110.341C2.85561 108.071 7.53558 99.751 12.2156 91.841C16.8956 83.931 29.5856 61.711 40.4156 42.461C51.2456 23.211 60.8456 6.61099 61.7556 5.57099C62.6656 4.53099 65.2156 2.85101 67.4156 1.84101C71.1056 0.151013 74.8756 0.00101698 116.416 0.00101698C161.166 -0.00898302 161.436 0.0109975 165.296 2.231C167.056 3.241 168.516 4.66101 171.186 8.77101C175.106 15.041 182.666 28.421 199.446 58.331C216.496 88.811 216.886 90.211 216.346 92.371C215.996 93.801 215.276 94.961 214.756 94.961C214.236 94.961 212.336 96.581 210.526 98.551C208.936 100.281 207.816 101.591 206.526 101.771C203.786 102.161 200.326 97.491 190.136 81.101C186.106 74.541 181.866 67.651 177.776 61.041L177.766 61.031C166.406 42.601 156.506 26.831 155.196 25.101C154.336 23.971 152.706 22.561 150.916 21.331C150.676 21.171 150.436 21.001 150.186 20.851C149.296 20.271 148.386 19.761 147.536 19.361C142.466 17.001 142.106 16.981 108.746 16.971L75.0656 16.961L72.0656 19.491C70.4056 20.881 66.9456 25.721 64.3556 30.241C61.7756 34.761 49.3656 56.061 36.7856 77.581C20.9656 104.641 13.9156 117.611 13.9156 119.651C13.9156 120.751 14.9156 123.191 16.8856 126.931C17.2656 127.641 17.6756 128.401 18.1156 129.201L18.1656 129.291C19.5456 131.761 21.2456 134.681 23.2856 138.031C24.8456 140.601 26.3856 143.141 27.9156 145.661C37.1156 160.801 44.4356 172.801 50.2056 182.191L50.2156 182.201C59.5156 197.371 65.9356 207.731 66.8956 209.071C68.7256 211.621 68.7256 211.751 66.8556 214.821C65.8056 216.551 64.4456 217.961 63.8356 217.961C63.2156 217.961 61.4556 219.311 59.9156 220.961L57.5156 223.531C53.6856 217.511 42.1656 197.881 30.5956 177.861C17.4056 154.721 3.76561 130.641 2.55561 128.241ZM153.856 100.731C147.236 90.161 142.286 82.261 138.566 76.361C132.756 67.111 129.976 62.771 128.436 60.741C127.246 59.121 126.886 58.941 126.526 58.951C126.476 58.951 126.426 58.951 126.376 58.961C126.306 58.961 126.236 58.971 126.166 58.971C125.426 58.961 124.906 60.281 124.896 62.211C124.856 67.841 121.506 73.471 115.256 78.391C108.096 84.031 103.976 85.301 97.0556 83.991C90.2956 82.701 86.5756 80.691 83.4856 76.641C80.5256 72.761 77.9156 65.881 77.9156 61.961C77.9156 57.251 80.8456 50.621 84.6556 46.721C90.7056 40.521 94.0056 39.781 114.176 40.141L131.786 40.461L133.066 41.691L135.256 43.961C136.716 45.481 141.756 52.921 147.466 61.931C160.046 82.361 174.426 105.661 184.686 122.231L182.146 125.091C180.736 126.671 179.096 127.961 178.496 127.961C177.886 127.961 176.836 128.861 176.146 129.961C175.466 131.061 174.566 131.961 174.156 131.961C173.806 131.961 169.906 126.201 164.996 118.481C161.216 112.451 157.376 106.341 153.856 100.731ZM129.376 107.891C130.156 108.211 130.686 108.641 131.326 109.211C132.546 110.311 141.366 123.571 151.806 139.961L153.286 142.291L149.846 145.201C147.966 146.801 145.296 148.911 143.916 149.891L141.536 151.601L140.966 150.711L125.016 125.561L122.756 121.961H122.736L106.076 121.991L89.4156 122.021L86.7956 126.341C79.4156 138.521 65.7756 140.351 55.0656 130.601C48.0956 124.251 46.4556 112.841 51.3056 104.551C55.2956 97.751 60.6456 94.581 68.8056 94.201C76.8756 93.811 81.8556 96.261 86.2056 102.731L89.0456 106.961H108.926C121.836 106.961 126.986 107.161 129.376 107.891ZM91.2056 176.551C91.2956 176.741 91.3856 176.941 91.4956 177.131C93.0656 180.501 92.0556 183.961 89.4156 183.961C88.6256 183.961 87.5056 184.861 86.9156 185.961C85.9356 187.791 85.1456 188.301 83.9356 187.401C83.8556 187.321 83.7856 187.241 83.7156 187.161C80.0156 183.061 78.2056 178.051 78.1356 173.071C78.1856 169.001 79.3356 164.811 81.5856 161.171C82.8056 159.181 84.3156 157.471 86.0256 156.051C87.0656 155.191 88.2056 154.411 89.4456 153.731C89.9956 153.441 90.5356 153.161 91.0856 152.921C94.4656 151.421 98.1856 150.781 101.866 151.031C108.826 151.601 115.196 155.461 118.976 161.131L116.306 164.341C112.826 168.521 110.676 168.771 106.736 165.461C106.596 165.341 106.446 165.231 106.306 165.121C104.976 163.961 103.316 163.231 101.446 163.021C99.1456 162.681 96.8556 163.161 94.9556 164.361C92.2756 165.941 90.6656 168.671 90.3756 171.601C90.0056 173.451 90.2456 174.641 91.2056 176.551ZM107.996 69.041C113.416 63.621 110.886 54.831 103.236 52.531C99.5856 51.431 94.0356 54.441 92.3656 58.431C88.1156 68.601 100.216 76.811 107.996 69.041ZM76.9956 123.041C82.4056 117.621 80.0056 108.021 72.8356 106.441C64.6356 104.641 58.2056 113.441 62.3156 120.851C65.4256 126.471 72.5056 127.521 76.9956 123.041Z" fill="#AF385D"/>
</svg>
